<svg xmlns="http://www.w3.org/2000/svg" width="70.647" height="42.029" viewBox="0 0 70.647 42.029"><path d="M8.492 6.71c.419.071.996.157 1.73.262a9.464 9.464 0 0 1 2.202.603 5.262 5.262 0 0 1 1.887 1.284c.524.559.786 1.311.786 2.254 0 .804-.367 1.713-1.101 2.726-.734 1.014-1.686 1.974-2.857 2.883a18.251 18.251 0 0 1-3.932 2.307c-1.451.629-2.892.944-4.325.944a3.278 3.278 0 0 1-2.044-.681c-.595-.455-.856-1.171-.786-2.149H0c0-.385.035-.612.105-.681.07-.071.105-.21.105-.419v.052l.052-.052v-.052c0-.035.017-.088.052-.157a.408.408 0 0 0 .052-.157l.21-.367.157-.21.105-.21.472-.629.262-.262.052-.052c0-.034.017-.06.052-.079.034-.017.052-.043.052-.079l.315-.367-.052.052-.105.21-.105.105.052.367c0 .035-.009.052-.026.052-.018 0-.026.018-.026.052l.052.052c.21-.244.419-.463.629-.655a6.28 6.28 0 0 0 .577-.603h-.051V13c-.035 0-.123.071-.262.21l-.157.157h.052l-.105.105-.21.262h-.157l-.21.262.21-.367.052-.052.157-.157.157-.262-.104.052.21-.367c.174-.175.367-.341.577-.498.21-.157.401-.323.577-.498v.052l.367-.315v.052l.105-.105.052-.052.105-.105.105-.052.734-.524.524-.315.157-.052.052-.052.262-.157c.489-.315 1.109-.603 1.861-.865.751-.262 1.371-.393 1.861-.393h.157l-.367.052-.157.053-.262.105c.419-.105.716-.157.891-.157h.052c0 .105-.026.149-.079.131-.052-.017-.183.009-.393.079-.21.071-.542.219-.996.446-.455.228-1.084.621-1.887 1.179-.385.28-.883.655-1.494 1.127a21.05 21.05 0 0 0-1.809 1.573 11.541 11.541 0 0 0-1.546 1.835c-.437.646-.655 1.266-.655 1.861 0 .489.113.856.341 1.101.227.244.48.367.76.367.175 0 .367-.018.577-.052.21-.035.367-.088.472-.157 0 .035.017.052.052.052.034 0 .07-.009.105-.026a.353.353 0 0 1 .157-.026c.07 0 .122-.018.157-.052 0-.035-.018-.052-.052-.052.174-.035.384-.097.629-.183a4.36 4.36 0 0 1 .629-.183c0-.035.148-.088.446-.157.296-.071.498-.14.603-.21v.052c-.035 0-.026-.009.026-.026.052-.018.06-.026.026-.026a59.034 59.034 0 0 0 2.071-1.127 21.439 21.439 0 0 0 1.809-1.179v.052c.07-.14.183-.245.341-.315s.27-.175.341-.315c.07-.07.139-.105.21-.105.105-.175.306-.393.603-.655s.533-.48.708-.655l-.052.052.052.052a.463.463 0 0 0 .131-.21c.017-.07.06-.105.131-.105v-.052h-.052a3.694 3.694 0 0 0 .944-1.782l.105.105v-.21l-.105.105a.98.98 0 0 0 .079-.262 1.69 1.69 0 0 0 .026-.21c-.105-.524-.35-.944-.734-1.258a4.664 4.664 0 0 0-1.363-.76 8.418 8.418 0 0 0-1.677-.419c-.598-.09-1.157-.169-1.681-.239-.455-.07-1.005-.158-1.651-.263a7.87 7.87 0 0 1-1.835-.524 4.029 4.029 0 0 1-1.468-1.048c-.402-.454-.603-1.049-.603-1.782 0-.035.008-.087.026-.157a.742.742 0 0 0 .026-.157c0-.035.017-.087.052-.157.034-.034.052-.07.052-.105 0-.035.017-.07.052-.105v.052c-.033-.14.028-.28.186-.42.157-.139.27-.244.341-.315v-.052l.21-.157.105-.157c.173-.105.331-.218.471-.341.139-.122.296-.236.471-.341l.052-.052v.052l.157-.157h-.051c.349-.21.768-.472 1.258-.786.489-.315.925-.472 1.31-.472l.419-.21v.052l.105-.052.052-.052.157-.052h.106c.139-.035.27-.07.393-.105.122-.035.27-.07.446-.105l.052-.052V.21L9.75.052h.472V0h.524l.367.052c.384 0 .786.097 1.206.288.419.192.716.428.891.708l-.105-.21-.21-.105-.419-.105.052.052-.157-.052.052.052c.245.072.437.159.577.264.139.105.262.21.367.315h.052c.035.035.157.236.367.603s.315.603.315.708v.052c-.071 0-.114-.035-.131-.105-.018-.07-.131-.244-.341-.524v.052c0 .071.017.105.052.105l-.261-.315v-.053l.105.052a2.632 2.632 0 0 0-.681-.472c-.28-.139-.664-.21-1.153-.21-.524 0-1.136.097-1.835.288-.7.193-1.468.498-2.307.917-.21.105-.498.254-.865.446-.367.194-.743.421-1.127.683a8.164 8.164 0 0 0-.996.786c-.28.262-.419.516-.419.76 0 .175.131.35.393.524.262.175.603.341 1.022.498.419.157.891.297 1.415.419a9.55 9.55 0 0 0 1.52.237zM.787 15.412l.105.052.21-.315H.996l-.209.263zm.733-1.311l.052-.052v-.052l-.052.104zm.053-.105l-.053.052c0-.034.017-.052.053-.052zm1.677-1.572h.052c0-.035.017-.07.052-.105l-.052.052-.052.053zm.21-.262c0 .035-.018.052-.052.052l-.105.052c.034-.034.06-.052.079-.052.016 0 .043-.017.078-.052zm.052 6.552c.105 0 .262-.035.472-.105l.052-.052v.052l.052-.105-.052-.052-.157.052c-.07 0-.14.035-.21.105l-.21-.052.053.157zm.315-6.71l.157.21a3.52 3.52 0 0 0 .367-.315c.105-.105.227-.192.367-.262l-.052-.105-.262.21c-.035.035-.061.052-.079.052-.018 0-.044.035-.079.105h-.052l-.367.105zm.839-9.855c-.035.035-.053.071-.053.105l.053-.105zm.052 16.303c.21-.071.384-.123.524-.157l-.105-.052-.315.105-.104.104zm.262-7.129h.052l.105-.105-.157.105zm.262-.42c-.035 0-.071.018-.105.052-.035.035-.071.052-.105.052.034 0 .07-.017.105-.052.035-.034.07-.052.105-.052zm.105-8.806c-.035 0-.061.018-.079.052-.018.035-.044.053-.078.053.069-.07.122-.105.157-.105zm-.052 9.016l.052.052c.139-.105.262-.192.367-.262.105-.07.227-.139.367-.21l.157-.315-.629.472c-.071.071-.123.105-.157.105l-.157.158zm.786 6.867a3.702 3.702 0 0 0 .524-.21h-.052l-.157-.105-.052.052-.105.052-.105.052-.052.052-.052.052-.159.055h.105l-.157.105c-.071 0-.105.017-.105.052.07-.035.131-.061.183-.079.053-.017.113-.044.184-.078zm.419-7.548a.607.607 0 0 1 .157-.105c.034-.034.07-.052.105-.052.035 0 .07-.017.105-.052l-.105-.105-.262.314zm.525 7.181H6.92c-.035.034-.079.052-.131.052s-.079.035-.079.106l.315-.158zM6.972 1.101v-.053l.052.105.052-.052.157-.052.105-.157-.366.156v.053zm.262 16.25zm-.105.105l.052-.052-.105.052h.053zm.158-16.355l.052-.052c-.035.035-.07.052-.105.052v.052l.053-.052zm1.52 15.516c.07-.035.131-.07.183-.105.052-.035.113-.071.183-.105v-.157l-.105.105c-.035 0-.071.017-.105.052h.052l-.104.053-.262.262.158-.105zM8.859.524c-.035 0-.061.009-.079.026-.017.018-.043.026-.078.026l.157-.052zm.157 15.779h.052c0-.035.008-.052.026-.052.017 0 .026-.018.026-.052l-.104.104zM9.803.419c0 .035.017.052.052.052h.105L9.855.367l-.052.052zm.419 15.15a1.35 1.35 0 0 1-.183.157c-.052.034-.079.07-.079.105l.262-.262zm.577-.419l-.105.105h.052v-.052l.053-.053zM10.851.367h.052-.105.053zm.367 14.416l.105-.052h-.105v.052zm.419-.315l-.105.105.052-.052h-.052c.035-.001.07-.018.105-.053zM12.109.577c.035 0 .061.009.079.026.017.018.043.026.079.026V.577h-.158zm9.016 13.105c.035-.035.07-.052.105-.052.034 0 .052.018.052.052 0 .105-.157.297-.472.577-.21.105-.437.245-.681.419a11.11 11.11 0 0 1-.97.603c-.402.227-.9.48-1.494.76-.595.279-1.363.577-2.307.891h-.052c-.244 0-.454-.114-.629-.341-.175-.228-.262-.428-.262-.603v-.105l.052-.052a.853.853 0 0 0-.052-.262c-.035-.105-.035-.157 0-.157 0-.035.009-.044.026-.026.018.017.026.008.026-.026l-.052-.052c0-.174.026-.358.079-.55.052-.192.114-.375.183-.55l.157.052c0-.139.035-.244.105-.315h-.104l-.052.105-.052.105.105-.367v-.052c0-.035.009-.061.026-.079.018-.017.026-.06.026-.131v-.052c.035 0 .052-.008.052-.026 0-.017.018-.026.052-.026v-.052c0-.035.009-.061.026-.079.018-.017.026-.06.026-.131l.105.157.157-.317-.052.052-.052.052.052-.157.052-.052-.052-.262c.035-.034.061-.122.079-.262.018-.139.044-.279.079-.419.034-.139.07-.27.105-.393.035-.122.07-.183.105-.183h.052v-.052h-.052.052l-.052-.052h.052l.052-.052-.052-.052.052-.052h-.052l.052-.052c.034 0 .052-.035.052-.105h-.105v-.052.052l.052-.052-.052-.157v-.105.052c.034 0 .043-.008.026-.026-.018-.017-.009-.026.026-.026h.105-.052c0 .035.07-.105.21-.419a27.247 27.247 0 0 1 1.153-2.28c.21-.367.367-.603.472-.708l.21-.105v-.057l.105-.052c0-.034.017-.06.052-.079.034-.017.052-.043.052-.079l.157-.105.052-.052v.052l.105-.052h-.052l.315-.105.105-.104v.052l.21-.157v.052c-.035 0-.052.009-.052.026 0 .018-.018.026-.052.026v.419c0 .035.035.052.105.052l.052.052h-.052c.139 0 .21-.034.21-.105l-.055-.05h.052l.052.052c.034-.035.087-.052.157-.052l-.051-.053h.105l-.052-.104v-.053h-.157v.053l-.157.105-.053-.105-.105.052.105-.105.052-.052.105-.105.052-.157c.21-.07.367-.105.472-.105l.157-.052h.105l.052-.052.052.052.524-.105.052.052V6.08l.472-.052c.175.035.375.071.603.105.227.035.375.071.446.105h-.105l-.156.052c.174 0 .306.009.393.026.087.018.166.026.236.026l.052.052c0 .071-.131.149-.393.236-.262.088-.586.201-.97.341-.385.14-.796.315-1.232.524-.437.21-.848.49-1.232.839-.175.21-.323.455-.446.734-.123.28-.254.559-.393.839l.052-.052.052.052c.105-.105.262-.192.472-.262.21-.07.401-.105.577-.105l.052.052V9.54v.052l.052-.052v.052h-.051l.052-.052.052-.052.105-.052.052.052v.21h.052v-.263l.21-.052v.052-.052.052h.157l.105-.052c.174.071.279.157.315.262h-.052l-.052.052c.07.071.122.105.157.105.034 0 .052.035.052.105 0 .245-.297.533-.891.865a8.653 8.653 0 0 1-1.782.76c-.21.071-.393.254-.55.55a6.554 6.554 0 0 0-.419.996c-.123.367-.228.734-.315 1.101-.088.367-.167.673-.236.917.105-.035.201-.07.288-.105.087-.035.166-.07.236-.105h.157l.052-.052h.105c0-.034.017-.052.052-.052.034 0 .052-.017.052-.052l.105-.052h.105l.052-.052.419-.21c.21-.139.489-.262.839-.367h.105l.105-.052.052-.052.315-.052.21-.105c.07 0 .122-.017.157-.052h.052l.157.052.105-.105c.244 0 .506-.035.786-.105h-.105l-.052.052-.105.157h.052l-.052.052c.21 0 .332-.034.367-.105l-.052-.157.105-.052c.07 0 .105.018.105.052h-.051l.052.052.052-.052v.052c.034 0 .07-.017.105-.052l-.105.157c.034 0 .017-.035-.052-.105h-.052c-.035 0-.052.018-.052.052.035 0 .052-.017.052-.052v.104l-.052.052a.42.42 0 0 1 .183-.052.405.405 0 0 0 .184-.051zm-6.553 1.52c0-.07.018-.122.052-.157h-.104v.21c0-.036.018-.053.052-.053zm.053-.262c0-.034.009-.07.026-.105a.353.353 0 0 0 .026-.157c-.07 0-.105.052-.105.157h.052l.001.105zm.367-1.153c0-.035.009-.061.026-.079.018-.017.026-.043.026-.079l-.052.105v.053zm.104-.315c0-.035.009-.052.026-.052.018 0 .026-.017.026-.052l-.052.052v.052zm.525-1.258l-.157-.577v.891l.157-.314zm.209-1.573v.052l.052-.052h-.052zm.105.367l-.052-.052v.052l.052.052v-.052zm0 4.875c0 .035.017.052.052.052l-.052-.052zm.577-6.342l.105.105h-.052v.052c.034-.034.052-.06.052-.079 0-.017.017-.043.052-.079l-.157.001zm.21-.158v.052c0-.035.008-.061.026-.079.017-.017.026-.043.026-.079 0 .035-.018.052-.052.052v.054zm.262-.367l-.105-.052v.157l.105-.105zm.104-.209c0-.035.008-.052.026-.052.017 0 .026-.017.026-.052l-.052.052v.052zm.367-.682l.052.052c0-.035.008-.052.026-.052.017 0 .026-.017.026-.052l-.052.052h-.052zm.158-.21l.052.052.105-.105h-.105l-.052.053zm.681-.943l.052.052.052.052V6.92l-.104.052zm.367.157a1.126 1.126 0 0 1-.262.21 1.17 1.17 0 0 1 .419-.21h-.157zm-.157 7.181v.052l.105-.052v-.105l-.105.052v.053zm.629-.104v-.052l-.052.052h.052zm.576-7.863l.105.315c.175-.07.262-.122.262-.157l-.105-.052-.104.051-.158-.157zm.105 3.302v-.104l-.052.105h.052zm.472-3.459h-.052v.052l.105-.052h-.053zm.053.209l.052.105h-.105c.07 0 .131-.008.183-.026a.59.59 0 0 1 .183-.026l.052-.21-.315.157h-.05zm.471 0c.07 0 .122-.017.157-.052l-.052-.105-.105.157z" fill="#f2f2f2"/><path d="M27.572 5.924c.454.175.803.524 1.048 1.048.244.524.279 1.136.105 1.835-.245 1.224-.857 2.333-1.835 3.329-.979.996-1.975 1.809-2.988 2.438l-.367.262.996.472.157.052.052-.105-.157.105-.052.052a.48.48 0 0 0 .131.052c.017 0 .06.017.131.052h.052l-.052-.052.157-.052.524.315.157.052h-.051l.052.052c0-.035.034-.052.105-.052l.315.21.157.105.052.052v-.052l.419.157c.105.105.227.236.367.393.139.157.244.27.315.341h-.052c.384.315.577.524.577.629l-.105.052c-.071 0-.629-.149-1.677-.446-1.048-.297-2.237-.743-3.565-1.337-.035-.035-.14-.097-.315-.183-.175-.088-.245-.219-.21-.393-.315.629-.585.97-.813 1.022-.227.052-.341.131-.341.236v.052c-.07 0-.139-.035-.21-.105a.567.567 0 0 1-.157-.419l-.052.052h-.052l-.052-.052.052.052h.052c0-.035-.008-.044-.026-.026-.017.017-.043-.009-.079-.079v.052l-.052-.052h.052l-.052-.052.105.052.105.052c0-.071.018-.123.052-.157h-.105l-.052-.052h.052c0-.035-.017-.052-.052-.052h.052l.052-.157h-.052l.052-.105v-.052c0-.035.018-.071.052-.105.071-.071.105-.123.105-.157h.052c-.035.035-.035.035 0 0s.018-.052-.052-.052c.035 0 .052-.018.052-.052l-.052-.052h.052v-.052c.035 0 .052-.017.052-.052 0-.035.018-.07.052-.105h-.052l.052-.052c.035-.21.097-.384.183-.524.088-.139.166-.349.236-.629.21-.454.393-.839.55-1.153.157-.315.315-.62.472-.917.157-.296.27-.515.341-.655l.052-.052v-.052.052l.052-.052c-.035 0-.044-.008-.026-.026.017-.017.008-.026-.026-.026v-.052l.052-.157.052-.105.105.052c.035 0 .052-.017.052-.052l-.105-.105.052-.157.052-.105v.052l.052-.052h-.052l.157-.105.052-.105h-.052V9.75l.21-.21c.07-.07.122-.105.157-.105l.052.105.052.157-.105-.052a.395.395 0 0 1 .236.236c.052.123.026.428-.079.917a18.037 18.037 0 0 1-.734 2.726c.035-.105.105-.157.21-.157l-.052-.052a.35.35 0 0 1 .157-.079.23.23 0 0 0 .157-.131c.034 0 .034.018 0 .052a.586.586 0 0 1 .21-.21c.07-.034.175-.105.315-.21l.681-.629c0-.07.026-.105.079-.105s.096-.017.131-.052v-.052c0-.034.017-.052.052-.052.07-.07.166-.148.288-.236.122-.087.218-.148.288-.183v.052c.07-.07.087-.105.052-.105h.052c0-.034-.018-.052-.052-.052.139-.139.262-.315.367-.524l.105.157c.035-.034.052-.06.052-.079 0-.017.017-.043.052-.079h-.21l.052-.105.052-.052c.035 0 .052.018.052.052v-.052l.105-.052H26l.052-.052.052-.052h.052c.21-.21.315-.367.315-.472.244-.489.428-.891.55-1.206.122-.315.218-.716.288-1.206a1.425 1.425 0 0 0-.419-.76 2.09 2.09 0 0 0-.655-.419 2.454 2.454 0 0 0-.577-.157c-.157-.017-.219-.026-.183-.026-.175 0-.306.052-.393.157-.088.105-.166.157-.236.157V6.5l.105-.105c-.035 0-.052.018-.052.052-.035 0-.052-.017-.052-.052l.052-.052-.052.052v-.052h-.052l-.052.052v-.157c.034 0 .043.009.026.026-.019.018-.01.026.025.026.035.035.052.035.052 0v-.052.052c-.035-.035-.044-.052-.026-.052.017 0 .008-.035-.026-.105v.052l.052-.052v.052l.052-.052h-.052c0-.034.017-.07.052-.105v.157l.105.052c0-.035.052-.105.157-.21l-.052-.105v-.156.052c.139-.139.296-.244.472-.315v.052c.034-.105.113-.157.236-.157h.393a.596.596 0 0 1 .262-.052c.07.035.122.071.157.105.034.035.087.052.157.052l-.052.052c.035 0 .052.018.052.052 0-.035.052-.052.157-.052.07.071.139.105.21.105v.052c.14.002.28.072.42.212zm-4.875 7.758c0 .105-.018.175-.052.21h.105v-.21h-.053zm.262-3.355c0-.034-.018-.052-.052-.052l.052.052zm.158 3.355l.105-.105-.105-.052-.052.052c0 .035-.035.071-.105.105h.157zm.104-3.775v.105l.105-.052-.105-.053zm.262 3.46a.837.837 0 0 0 .21-.157v-.052l-.105.052v.052h-.052l-.105-.157-.052.105-.052.052-.052.105.052.052c-.035 0-.052.018-.052.052l-.052.052h.105c0-.034.034-.087.105-.157h-.052l.105-.052c-.003.001-.003.053-.003.053zm-.209-3.512l.105.052v-.052h-.105zM23.588 13v.052l.053-.052h-.053zm.053.053v.052c0-.035-.018-.052-.052-.052l.052.052v-.052zm.576-.315c0-.035.008-.052.026-.052.017 0 .026-.017.026-.052v-.105l-.105.052v.052-.052.052l-.052.157.105-.052zm.367-.472l-.052.105h.052v-.105zm.158-.157l.052.052v-.052h-.052zm.157-.21c.035.035.07.052.105.052l-.105-.052zm.314 3.88h.052l-.052-.052v.052zm.105-.053c-.035 0-.052-.018-.052-.052l.052.052zm.105.157v.052c0-.035-.018-.052-.052-.052h.052zm.21-4.665l.052.052-.052-.105v.053zm.157-5.767c0-.034-.018-.034-.052 0l.052.052-.052-.052c.034-.034.052-.034.052 0zm.105 0h-.052l.052.052v-.052zm0 10.537l.105.053c-.036-.035-.071-.053-.105-.053zm.157.262c.034.035.087.052.157.052l.105-.052h-.262zm.105-10.851h.052l-.105.052.053-.052zm.314.052h-.105.105zm-.104 10.957l.052.052v-.052h-.052z" fill="#f2f2f2"/><path d="M34.963 12.948c0 .14-.14.28-.419.419-.28.14-.629.297-1.048.472-.035.175-.131.437-.288.786a4.46 4.46 0 0 1-.681 1.048 4.4 4.4 0 0 1-1.101.917c-.437.262-.97.393-1.599.393-.524 0-.996-.21-1.415-.629-.419-.419-.629-1.048-.629-1.887 0-.21.035-.454.105-.734v-.052c0-.035.009-.061.026-.079.018-.017.026-.06.026-.131v-.051l.052-.052c0-.07.026-.192.079-.367.052-.174.114-.315.183-.419v.052c.07-.279.139-.524.21-.734l.105.105c0-.034.017-.07.052-.105h-.157v-.105c.034-.035.07-.052.105-.052h.052v-.053h-.052l.052-.052h-.052.052v-.052l.052-.052v-.105a.565.565 0 0 0 .157-.419v-.105c.21-.559.463-1.118.76-1.677a6.335 6.335 0 0 1 1.127-1.52l.105-.052.052-.105.105-.052v-.108l.105-.157.105-.105.262-.315.052.052v-.104c.21-.21.454-.401.734-.577v-.052l.157-.105v.052l.052-.052c0-.034.017-.052.052-.052l.315-.105.21-.157h.157l.052-.052.157.052.105-.052h.262c.315 0 .524.018.629.052l-.105.052-.052-.052-.157.105c.174 0 .279.018.315.052l.157-.105.105.105h-.105l.105.052h-.052c.07 0 .113.009.131.026.017.018.043.026.079.026h.052c-.28.105-.577.288-.891.55s-.717.69-1.206 1.284c-.49.595-1.084 1.433-1.782 2.516-.245.385-.498.857-.76 1.415a12.064 12.064 0 0 0-.655 1.73h.105l.052-.052h.104c.07-.07.122-.105.157-.105v.104c0-.035.017-.07.052-.105v.052l.052-.052v-.052h.052c.034 0 .052.018.052.052.034-.034.052-.07.052-.105h.052c.035-.07.07-.096.105-.079.034.018.07.009.105-.026v.052c.034-.07.07-.096.105-.079.035.018.07.009.105-.026l.052.052v.052-.052l.052-.052c.034 0 .052-.017.052-.052h.052l.052.052V13v.052h.052v-.105h.104v-.052l.052.052.052-.052v.052-.052h.157c.034-.034.087-.052.157-.052v.052h.105v-.052l-.052.052-.052-.052.105-.052v.052-.052l.105.052v-.052c.034 0 .052.018.052.052l.052-.052v.052-.052l.052.052h.105v-.052c.07 0 .139-.035.21-.105.035.035.052.071.052.105h.052v-.052c.035.035.052.044.052.026 0-.017.017-.008.052.026 0-.07.139-.139.419-.21.279-.07.454-.105.524-.105h.157l.052.052.052-.052v.052-.052.052c0-.034.008-.043.026-.026.017.018.026.009.026-.026l.052-.052v.052-.052.052l.105-.052.052.052.052-.105-.052.105v.21h.052v-.052l.052-.105v-.157l.157.052.052-.052v.052l.052-.052.105.052.052.052v-.052h.157c.175.071.279.157.315.262h-.105l-.052.105c.152 0 .223.052.223.157zm-7.077 1.362l.052-.052h-.052v.052zm3.512 1.154c.07-.071.122-.105.157-.105h-.157l.105-.157.052-.052-.052-.157.052-.157.315-.21.052-.105.105-.052c0-.035-.018-.052-.052-.052l.052-.052.105-.052a2.649 2.649 0 0 1-.603.157 3.79 3.79 0 0 1-.55.052c-.419 0-.69-.079-.813-.236-.123-.157-.219-.236-.288-.236h-.105v-.052c0-.07.017-.122.052-.157v.052l-.105-.105v.052a.596.596 0 0 0-.262-.052v-.052l.052-.157c0 .245-.044.49-.131.734a1.913 1.913 0 0 0-.131.629c0 .175.017.341.052.498.035.157.157.236.367.236.139 0 .349-.035.629-.105h.157v-.052h.105c0-.035.017-.044.052-.026.035.017.052.008.052-.026l.105-.052.105-.052.21-.157.157-.052.105-.157c-.035.035-.052.07-.052.105v.052l.106.31zm-1.625-1.94c0-.034-.018-.07-.052-.105l.052.105zm.262-4.508l.105-.105v-.21l-.105.157v.158zm.577 4.089v.105-.105zm.262 2.569a.112.112 0 0 0 .079-.026c.017-.018.043-.026.079-.026l-.052-.052-.106.104zm.472-2.726v-.052l-.052.052h.052zm.052 0h.052l-.052-.052v.052zm.21 2.358a.862.862 0 0 0 .21-.157h-.158v.052l-.052.105zm.21-8.386l-.052.052c.034 0 .052-.017.052-.052zm-.053 7.81l.052-.052h-.052v.052zm0 0l.052.052-.052-.052zm.42.105a.803.803 0 0 1 .21-.157c0-.035-.018-.07-.052-.105l-.052-.052-.105.105-.21.052.209.157zm.052-8.44l.105.052-.053-.157-.052.052v.053zm.105.052l.052.053v-.053h-.052zm.157 8.073c.07-.07.105-.122.105-.157l.052-.052v-.157a.24.24 0 0 0-.105.026.23.23 0 0 1-.105.026v.157l.052.105-.052.052h.053zm.315-8.334l.052-.052h-.052v.052zm.105 6.552c.07 0 .113-.008.131-.026.017-.017.06-.026.131-.026v-.157l-.157.105-.105.052v.052zm1.153-.053h-.052.052zm.209 0l-.105-.157.052.157h.053zm.105-.209h-.052v.052l.052-.052zm0 .209c0 .035.017.052.052.052l.052-.157-.104.105zm.158.053v-.105l-.052.105h.052zm3.721-5.662v-.052c.105 0 .21.297.315.891.034.419-.097 1.136-.393 2.149a34.955 34.955 0 0 1-1.048 3.04 31.728 31.728 0 0 1-1.206 2.7c-.401.786-.69 1.179-.865 1.179 0 .034-.017.034-.052 0h-.052v.052l-.052-.105-.105-.052-.157-.105.052.052v-.105l-.105-.052h.052l-.052-.052.103-.156h.209v-.052l-.105-.052-.104-.053v-.157l.052.052.052.052.157.052v-.157l-.052-.052h-.052c-.035 0-.061-.009-.079-.026-.017-.018-.043-.026-.079-.026v-.105l.052.052c.14-.035.21-.105.21-.21l-.157.052H34.7h.105-.052l.052-.052c-.034 0-.052-.018-.052-.052l-.053-.052c0-.035-.008-.061-.026-.079-.017-.018-.026-.044-.026-.079l.105-.105h.157l-.052.052h-.105v.052l.105.052h.105c0-.071.009-.123.026-.157a.36.36 0 0 0 .026-.157l-.105.052-.157-.052c.071-.071.14-.105.21-.105l-.157-.157c0-.035.018-.07.052-.105.035-.034.052-.087.052-.157l.052-.052v-.052c0-.07.009-.122.026-.157a.356.356 0 0 0 .026-.157h.105l-.052.052h.105v-.052l-.052-.052h-.105v-.209c.035-.035.052-.07.052-.105h.052v-.104c.071-.034.097-.07.079-.105-.017-.035-.008-.07.026-.105v-.052c0-.034.018-.06.052-.079.035-.017.052-.043.052-.079l.052.052v-.053h-.052c-.034-.07-.017-.192.052-.367a6.98 6.98 0 0 1 .157-.367v-.052l.052-.052v-.052l.052-.052c.034-.349.122-.734.262-1.153.139-.419.296-.821.472-1.206.175-.384.332-.734.472-1.048.139-.315.244-.559.315-.734l.052-.052-.05-.055a1.17 1.17 0 0 1 .21-.419v-.053l.052-.052c-.035 0-.052-.017-.052-.052v-.158l.052-.157h-.052l.052-.052.052-.052c.07-.139.105-.244.105-.315v-.053h.052-.052l.262.052h.105-.052c0 .035.008.052.026.052.017 0 .026.018.026.052l-.105.21c.034 0 .052.018.052.052v.052c.245-.138.368-.225.368-.261zm-3.093 7.444c-.035-.034-.035-.07 0-.105h-.105l-.052.052.105.052-.052-.052.104.053zm.105-.629h-.105l-.052.052h.052-.105l.21.052v-.104zm.157-.419l-.052-.052.052.105v-.053zm2.097-5.557v-.104.104zm.262-.314h-.105l.105.052v-.052zm.052-.315l-.052.052c.034-.034.052-.034.052 0v-.052zm1.049-1.729v-.053.053l.21.052v-.052l-.157-.157h-.052c0-.034.034-.034.105 0l.105.052L39 5.347h-.21.052l.052-.052c-.035.035-.071.035-.105 0 0-.035-.018-.052-.052-.052l.052-.052h.052l-.052.052h.157l-.052-.053h.052v-.053h-.105c-.035-.07-.044-.105-.026-.105.017 0 .008-.017-.026-.052h.052l-.052-.105V4.77h.157l.052.052-.052-.052-.052-.052-.105.052.105-.105-.052.052.052-.105v-.104h.052-.052c0-.035.017-.052.052-.052l-.105-.105.052-.052c.07-.07.105-.122.105-.157h.052l-.052-.052h.052l-.052-.052c.035 0 .043-.008.026-.026-.018-.017-.009-.026.026-.026v.052-.054c0-.035.008-.07.026-.105a.24.24 0 0 0 .026-.105l.052.21-.052-.21.052.052c0 .035.017.052.052.052v-.051.052l-.052-.105c.034.071.043.079.026.026-.018-.052-.009-.06.026-.026-.035 0-.052-.017-.052-.052 0-.034-.009-.052-.026-.052-.018 0-.026-.017-.026-.052l.052-.367c.07 0 .122-.026.157-.079a.177.177 0 0 1 .157-.079h-.052.052-.052l.054-.053.052-.052.105-.052h-.105c-.035-.07-.018-.139.052-.21l.052-.052-.052-.052.052.052v-.053l.052.105v-.053l.052.052v-.052h.157-.052l.157.157.108.053v.105h-.052l-.053.052c.035-.034.043-.034.026 0-.018.035-.044.052-.079.052.139.035.236.079.288.131.052.052.096.079.131.079s.052-.017.052-.052c.034.035.07.088.105.157.034.071.052.14.052.21 0 .071.017.14.052.21 0 .105-.052.288-.157.55-.105.262-.228.542-.367.839-.14.297-.288.55-.446.76-.157.21-.306.315-.446.315-.035 0-.123-.175-.262-.524l-.052-.052h-.052c0-.034-.018-.052-.052-.052l.052-.052.21.052.052-.052-.157-.052c.001-.002-.051-.002-.051-.002zm.052-.735c-.071 0-.105-.017-.105-.052l.105.052zm0-.471c-.035 0-.035.018 0 .052 0 .035.017.052.052.052l-.105-.105c0 .035.017.052.052.052.035.035.07.052.105.052l-.104-.103zm.105.367v-.053h-.052v-.052h-.105l.105.052-.105-.052.105.052.052.053zm0-.367v-.053h-.052l.052.053zm-.052.104v.052l.105.052v-.051l-.105-.053h.052-.052zm.838-1.572l.052.105v-.105h-.052zm.158.157c-.035 0-.035-.017 0-.052v.052zm0-.052v.052l.052-.052h-.052zm5.189 5.871c0 .49-.061 1.162-.183 2.018-.123.857-.367 1.704-.734 2.542s-.883 1.573-1.546 2.202c-.664.629-1.52.944-2.569.944-.49 0-.883-.097-1.179-.288a2.232 2.232 0 0 1-.681-.655 2.217 2.217 0 0 1-.315-.76 3.374 3.374 0 0 1-.079-.603c0-.384.052-.786.157-1.206.105-.419.21-.786.315-1.101l.262-.262v-.052l.052-.052v-.211l.157-.21.052-.052.262-.629h.052v-.157.052c.07-.244.262-.524.577-.839h.21l.052.052.054-.051-.052-.21v.052-.052c0-.034-.009-.052-.026-.052-.018 0-.026-.017-.026-.052l-.052-.105c.07-.035.105-.079.105-.131s.017-.096.052-.131h.052l-.053.051c-.035 0-.052.052-.052.157l.105.262.21-.262.105-.21-.105-.105c0-.07.017-.113.052-.131.034-.017.052-.043.052-.079h-.105l.105-.21.052.052.052.105v.052l.262-.21.315-.052-.262-.105h-.157l.105-.052v.052c0 .035.052.018.157-.052h-.105c0-.07.052-.157.157-.262s.191-.21.262-.315l.105.052c0-.105.07-.192.21-.262l.052.052-.052.056-.105-.052-.052.052c-.035 0-.052.018-.052.052v.052l.052.052-.053.106v.052l.052-.052.21-.105h-.052l.105-.21v.052h.157-.105V7.6l-.052.157c.034-.034.096-.079.183-.131a.458.458 0 0 0 .183-.183l.105-.105.052-.052v-.104l-.157-.21h.157c.175-.07.288-.122.341-.157.052-.035.166-.052.341-.052h.839c.349 0 .611.088.786.262.175.175.306.376.393.603a3.802 3.802 0 0 1 .236 1.231zm-6.028 2.411c.034-.07.06-.166.079-.288a.49.49 0 0 1 .131-.288v-.419l-.21.472h.052l-.052.105v.418zm2.516 3.146a4.75 4.75 0 0 0 .839-1.179c.244-.472.454-.978.629-1.52.175-.541.315-1.092.419-1.651a8.077 8.077 0 0 0 .157-1.468c0-.175-.018-.349-.052-.524-.035-.174-.14-.332-.315-.472.07 0 .008.079-.183.236-.192.157-.455.428-.786.813-.333.385-.7.9-1.101 1.546-.402.647-.76 1.442-1.075 2.385-.175.315-.307.76-.393 1.337-.088.577-.079.917.026 1.022a.912.912 0 0 0 .419.105h.315c.139 0 .227-.017.262-.052h-.052l-.052.052-.21-.052c.105 0 .296-.043.577-.131.279-.087.454-.218.524-.393l.052-.105v.051zm-1.31-4.875c-.035 0-.052.018-.052.052l.052-.052zm.786-1.573v-.21l-.157.21.157.052v-.052zm1.573-1.048l-.052.052h-.052.052l.052-.052zm-15.58 14.77c.315 0 .55.052.708.157.157.105.27.228.341.367.07.14.113.271.131.393.017.123.043.201.079.236.139.14.113.673-.079 1.599a54.746 54.746 0 0 1-.839 3.381 158.706 158.706 0 0 1-1.258 4.298 147.945 147.945 0 0 1-1.415 4.377c-.472 1.38-.9 2.577-1.284 3.591-.385 1.013-.647 1.66-.786 1.94 0-.071-.009-.192-.026-.367-.018-.175.008-.402.079-.681l-.262.577.157-1.153v.157l.105-.262c0-.035-.009-.044-.026-.026-.018.017-.026.008-.026-.026v.105c0-.035-.009-.228-.026-.577-.018-.35.061-.559.236-.629l.262.052c-.07-.071-.07-.14 0-.21l-.052-.157c0-.035-.009-.061-.026-.079-.018-.018-.026-.044-.026-.079L23 38.622c.175-.175.21-.35.105-.524l.105.052c.035.07.052.139.052.21l.052.21a3.68 3.68 0 0 0 .052-.681h-.052l.052-.105v-.262l.052-.315.105.105h.052c0-.105.008-.201.026-.288.017-.088.026-.183.026-.288h-.157v.105l.052-.262.052.157-.052-.105c0-.035.008-.035.026 0 .017.035.043.018.079-.052l-.052.052v-.052c0-.07.034-.201.105-.393.07-.192.157-.41.262-.655.105-.244.201-.48.288-.708.087-.227.131-.393.131-.498h.157l-.105.105c-.035 0-.052.061-.052.183 0 .123-.018.183-.052.183h.105l-.472 1.101c.034-.21.148-.559.341-1.048.192-.489.306-.839.341-1.048l-.105.105-.052.105c-.035-.349.026-.734.183-1.153.157-.419.253-.821.288-1.206l.052-.052c.034-.244.096-.489.183-.734.087-.244.166-.472.236-.681l.052.052.052-.105-.052.315.157-.157c-.035-.07-.018-.174.052-.315l-.105-.052v-.052c-.035 0-.052.018-.052.052v.105c-.035-.035-.071-.052-.105-.052.035-.034.113-.244.236-.629.122-.384.166-.716.131-.996 0-.034-.018-.052-.052-.052.07-.139.113-.296.131-.472.017-.175.079-.296.183-.367h-.105c0-.139.026-.306.079-.498.052-.192.113-.306.183-.341 0-.07-.009-.087-.026-.052-.018.035-.026.035-.026 0 .07-.489.139-.961.21-1.415.07-.454.175-.926.315-1.415-.839.979-1.651 1.948-2.438 2.909-.786.962-1.538 1.887-2.254 2.778-.717.891-1.372 1.722-1.966 2.49a43.343 43.343 0 0 1-1.625 1.992c.139-.034.27-.043.393-.026.122.018.27.009.446-.026.175-.034.375-.06.603-.079.227-.017.446-.043.655-.079l.105.105.052.052v-.052.052l.052-.052v.052c0-.034.026-.043.079-.026.052.018.079.009.079-.026l.157-.052v.052l.315-.052v.052l.21-.157-.157.105.052.367.105-.105-.105.052v-.157h.052v-.052l.052.052.21-.262.419.105c.035 0 .052-.017.052-.052l.052.052.738-.057c.139.035.296.061.472.079.175.018.279.061.315.131h-.105l.052-.052-.052.105h.419a.582.582 0 0 0 .262-.052c.034.175-.157.35-.577.524-.419.175-.988.333-1.704.472-.717.14-1.52.271-2.411.393-.891.123-1.792.219-2.7.288-.804.909-1.459 1.607-1.966 2.097a15.43 15.43 0 0 1-1.206 1.075 2.435 2.435 0 0 1-.865.446l.052-.052a.883.883 0 0 0 .105-.131l.157-.236-.052.052c0-.035.008-.061.026-.079.017-.018.026-.061.026-.131l-.052.157v-.052l-.052.105v.052c-.071 0-.105.017-.105.052l.052-.262c.034.034.07.052.105.052.07-.071.087-.14.052-.21 0 .035-.018.07-.052.105 0-.071.017-.123.052-.157l-.105.052a.82.82 0 0 0 .157-.21c0 .034.008.043.026.026.017-.018.026-.009.026.026 0-.035.008-.071.026-.105a.375.375 0 0 0 .026-.157v.315l.052-.105v.105c.139-.21.279-.367.419-.472v-.21.052-.105h-.105l.157-.105c.035-.14.105-.297.21-.472s.192-.297.262-.367h.052c0-.07.096-.253.288-.55.192-.296.323-.463.393-.498.034 0 .052-.017.052-.052-.49.035-.944.018-1.363-.052a6.464 6.464 0 0 1-1.075-.262 15.63 15.63 0 0 1-.76-.288c-.21-.087-.35-.131-.419-.131-.14 0-.21-.017-.21-.052l.105-.105a.735.735 0 0 0-.315-.052v-.052l.052.052.105-.262h-.052.052c.035 0 .043-.008.026-.026-.018-.017-.009-.026.026-.026l.262.052c0-.035.035-.052.105-.052a.65.65 0 0 0 .393.079 2.85 2.85 0 0 1 .393-.026l.052.052-.052-.052.052.052c0-.034.017-.087.052-.157 0 .035.035.052.105.052.035 0 .07-.017.105-.052v.052c0-.035.017-.052.052-.052.034 0 .07.009.105.026.035.018.087.009.157-.026l.052-.052.157.052c.139.035.332.018.577-.052l.052.052c0-.07.07-.105.21-.105h.262l.052.052c.07 0 .087-.017.052-.052.035.035.07.044.105.026.035-.017.07-.008.105.026.034 0 .043-.008.026-.026-.018-.017-.009-.026.026-.026.034 0 .07-.017.105-.052l.105-.052v.052h.052c.07.071.139.105.21.105l-.052-.105c.07 0 .122.018.157.052l.052-.052h.052c.034 0 .061.009.079.026.017.018.043.026.079.026l.052-.052c.034 0 .043.009.026.026-.018.018-.009.026.026.026l.105-.105c.105-.034.043-.043-.183-.026-.228.018-.307.026-.236.026l.052.105c.034 0 .07.009.105.026.035.018.07.026.105.026l-.21-.157h.262c.034 0 .06.009.079.026.017.018.043.026.079.026 0-.034.017-.052.052-.052l.052-.052c.034 0 .06.009.079.026.017.018.043.026.079.026.035 0 .052-.008.052-.026 0-.017.017-.026.052-.026l-.052.157h.21-.104.166c.034-.034.052-.06.052-.079 0-.017.017-.043.052-.079h-.209l-.052.105v-.052c.07-.07.087-.139.052-.21l.105.052c0-.21.008-.306.026-.288.017.018.079-.017.183-.105.105-.087.288-.279.55-.577.262-.297.655-.865 1.179-1.704h.052a3.41 3.41 0 0 1 .472-.681 4.79 4.79 0 0 0 .472-.629v.105c0-.035.113-.192.341-.472.227-.279.428-.559.603-.839v.052h.105c.035 0 .052-.026.052-.079s.035-.113.105-.183v.052c.034-.07.06-.131.079-.183a.316.316 0 0 1 .079-.131v-.052c.07-.279.21-.48.419-.603.21-.122.367-.288.472-.498v.052c.349-.454.681-.873.996-1.258.315-.384.611-.768.891-1.153l-.052.157c-.035.035-.052.071-.052.105l-.157.052.419-.524c.105-.279.253-.454.446-.524.192-.07.393-.244.603-.524l-.052.052c.035-.035.061-.052.079-.052.017 0 .043-.035.079-.105l-.052.052.157-.262-.105.21c.07-.105.183-.21.341-.315.157-.105.236-.192.236-.262l.629-.786c.035-.034.122-.096.262-.183.139-.087.244-.148.315-.183.07 0 .148.009.236.026a.353.353 0 0 0 .233-.027zm-12.37 14.678c-.035.035-.035.071 0 .105v-.053c.034.035.034.052 0 .052-.036-.034-.036-.069 0-.104zm.052-2.15c.034-.034.07-.052.105-.052h.944c.035.035.035.071 0 .105h-.157a.557.557 0 0 1-.183-.026.594.594 0 0 0-.183-.026h-.526zm.105 1.992h-.052c0 .035.017.052.052.052h.052l-.052-.052zm.105-2.044l-.052-.052h.104c.034.035.07.052.105.052v.052c-.105 0-.175-.017-.21-.052h.053zm.105 1.625c.034-.034.052-.07.052-.105l-.052.052v.053zm.733-1.521h.052v-.052l-.052.052zm2.831-3.249l.052.052v-.052h-.052zm2.359 3.092h.052v-.105l-.052.052v.053zm.21-.314v.052l.052-.052h-.052zm.419.21h.157l-.052-.052h-.105l.052.052h-.052zm.262-7.234a.407.407 0 0 1 .105-.079.396.396 0 0 0 .105-.079l-.157.157h-.053zm.157 7.234c.07.035.139.052.21.052l.052-.105-.367-.157.105.21zm.315-7.706l-.052-.052c-.035 0-.035-.017 0-.052 0-.07.07-.105.21-.105-.106.069-.158.139-.158.209zm-.052 7.443v.052l.105-.052h-.105zm.209.263a.23.23 0 0 0 .105-.026.236.236 0 0 1 .105-.026l-.052-.157-.105.157-.053.052zm.315-.053c.034.035.07.052.105.052l-.052-.157-.053.105zm2.463-3.093c0-.07.07-.175.21-.315l-.262.157c-.035.035-.052.07-.052.105l.052.052v-.052.052h.052zm.525-2.149c.07-.139.087-.262.052-.367-.035 0-.044-.008-.026-.026.017-.017.008-.026-.026-.026l-.053.105v.105l.052.052-.157.157h.158zm.419-6.605l.262-.157v-.157a2.555 2.555 0 0 0-.367.315l-.105.157a.809.809 0 0 1 .21-.158zm.052 4.875a.354.354 0 0 1-.026-.236c.017-.087.026-.166.026-.236l-.105.052.052.524.053-.104zm.105-1.048c-.07 0-.105.052-.105.157v-.052l.105-.105zm-.052.104v.052l.052-.052h-.052zm.314-1.625c-.035.035-.071.052-.105.052v.052l.105-.104zm0 .105c-.035 0-.052.035-.052.105l.052-.052v-.053zm.053-.105l-.052.105.052-.105zm7.233 2.202l.052.105c0-.07-.061.14-.183.629-.123.49-.288 1.136-.498 1.94a102.28 102.28 0 0 1-1.573 5.373c-.28.857-.559 1.59-.839 2.202-.28.611-.524.97-.734 1.075-.419.21-.734.218-.944.026-.21-.193-.367-.533-.472-1.022s-.175-1.092-.21-1.809a80.669 80.669 0 0 0-.157-2.385v.052-.053c0-.035.017-.07.052-.105l.105-.052-.105-.052c-.035 0-.035.018 0 .052v-.052c-.629 1.573-1.153 2.752-1.573 3.538a28.47 28.47 0 0 1-.996 1.756c-.244.384-.437.637-.577.76-.139.122-.244.306-.315.55l-.105.105c-.034 0-.052-.018-.052-.052v-.262.157c-.034 0-.052.017-.052.052l-.052-.21.052.052c.035-.035.052-.105.052-.21l-.052.052.052.052h-.052v-.105l-.052.052.052-.21v.052h.052c-.034 0-.052-.018-.052-.052v-.105l.052.052v.105h.052c0-.14.052-.297.157-.472l-.105-.105.052.052-.105-.105h.052c0-.071.018-.157.052-.262.07-.245.14-.402.21-.472l.052-.052v-.052c-.034-.07.009-.315.131-.734.123-.419.201-.734.236-.944l.105.052c-.07-.034-.079-.052-.026-.052.052 0 .079-.017.079-.052l-.052.052v-.052c0-.105.026-.218.079-.341.052-.122.061-.218.026-.288l.052-.052a.44.44 0 0 1 .052-.236l.157-.236c0-.035-.008-.052-.026-.052-.017 0-.026-.017-.026-.052 0-.21.079-.463.236-.76.157-.296.27-.585.341-.865h.052c-.035-.279 0-.506.105-.681.105-.174.192-.349.262-.524l.052.105c.034-.034.052-.061.052-.079 0-.017.017-.043.052-.079l-.052-.052.315-.944.052.052v-.105c0-.034.008-.052.026-.052.017 0 .026-.017.026-.052l.052.052.262-.262-.157-.157-.21.052a3.29 3.29 0 0 1 .367-.498c.139-.157.21-.306.21-.446h.052c0-.034-.018-.052-.052-.052 0-.034.026-.096.079-.183.052-.087.183-.218.393-.393.139 0 .227.018.262.052l.315-.105c.244-.034.41 0 .498.105a.525.525 0 0 1 .131.341c0 .123-.052.271-.157.446.105.909.192 1.887.262 2.936.07 1.048.157 1.992.262 2.831.21-.663.437-1.275.681-1.835l.105-.157c0-.034.017-.052.052-.052l.052-.052v-.052l.052-.105h.052v-.209l.105-.367.21-.472.105-.157v-.105h-.052l.105-.262v.261l.262.21c0-.034.035-.122.105-.262l-.105.157v-.262l.052-.105-.157-.367.315-.629.105-.21v-.105c0-.035-.018-.052-.052-.052l.052-.052.052-.052.262-.472.157-.315.052-.157.105-.472c.175-.244.332-.533.472-.865.139-.332.244-.533.315-.603v.052l-.052.157-.052.157.052.105-.052.105c.175-.315.315-.524.419-.629l.058-.051zm-8.702 10.327l.052.052-.052-.052.052.052c-.034 0-.07-.018-.105-.052h.053zm.105-.21v.052l.052-.052h-.052zm.052-.366v.052c.035 0 .044-.008.026-.026-.017-.017-.008-.026.026-.026h-.052zm.21-.367l.052-.052-.052.052zm2.778-7.13c.034-.07.06-.131.079-.183.017-.052.079-.131.183-.236l-.052-.052-.262.21c-.071.035-.105.105-.105.21 0 .035.017.052.052.052h.105zm1.835 6.605v.21-.21zm1.311-3.145c0-.035.008-.061.026-.079.017-.017.026-.043.026-.079l-.157-.052v.157l.105.053zm.419-2.045c.034 0 .052-.017.052-.052l-.052.052zm.052.106l.052-.052h-.052v.052zm.053.629v-.21c0 .035-.018.071-.052.105v.105h.052zm.367-.892c.07-.21.105-.367.105-.472l-.053.263-.262.21h.21zm.052-.943l-.052.105.052-.052v-.053zm.21.052c.035-.07.07-.131.105-.183.035-.052.07-.113.105-.183l-.105-.157-.052.367-.053.156zm.314-.681l.052-.105h-.156l.104.105zm9.278-.262a351.305 351.305 0 0 1-2.49 6.369c-.402.996-.726 1.87-.97 2.621-.245.751-.367 1.249-.367 1.494 0 .105.034.157.105.157-.245 0-.402-.28-.472-.839v.21l-.105-.157-.157-.21.052.052v-.105l-.105-.105h.052c0-.035-.009-.052-.026-.052-.018 0-.026-.018-.026-.052l.105-.262c.035 0 .052-.018.052-.052l.21.052-.105-.157-.21-.105a.427.427 0 0 0 .052-.157c0-.035.017-.071.052-.105v.157l.262.157c-.035-.035-.052-.088-.052-.157v-.105l-.105-.052.052-.105c-.035 0-.044-.009-.026-.026.017-.018-.009-.043-.079-.079l.105-.105c0 .035.017.052.052.052l.105.052c0-.139.017-.227.052-.262l-.105-.052h-.157.052c-.419.454-.97.908-1.651 1.363-.681.454-1.355.681-2.018.681-.385 0-.699-.079-.944-.236a1.64 1.64 0 0 1-.55-.55c-.122-.21-.21-.437-.262-.681s-.079-.454-.079-.629v-.472a.738.738 0 0 0-.052-.315 14.62 14.62 0 0 1 .498-2.333 6.951 6.951 0 0 1 1.022-2.071c.139 0 .21-.07.21-.21v.052l.105-.105v-.157l.157-.21.052-.052.367-.367.052-.052.052-.052h-.052c.105-.174.227-.315.367-.419.139-.105.297-.21.472-.315l.157-.105.105-.052c.034-.035.043-.052.026-.052-.018 0-.009-.017.026-.052h.105l.524-.315.052-.052c.034 0 .052-.008.052-.026 0-.017.034-.026.105-.026l.157-.052.157-.052c.175-.07.341-.131.498-.183.157-.052.306-.079.446-.079l-.052.052v-.053l-.105.052-.1.158a1.36 1.36 0 0 1 .419-.052v-.052l.052-.157h.052l.052.105c-.035 0-.052.018-.052.052.034 0 .052-.017.052-.052v.104h.052v-.052l.052.052c.07-.07.21-.105.419-.105h.052c0 .071-.088.14-.262.21l.052.052c.175 0 .393.088.655.262.262.175.428.559.498 1.153.349-1.013.663-1.931.944-2.752a28.31 28.31 0 0 1 .734-1.966l.052-.157v-.105c.035-.139.07-.262.105-.367a1.16 1.16 0 0 0 .052-.367l.052-.105.052-.052c0-.034-.009-.052-.026-.052-.018 0-.026-.017-.026-.052l.157-.21.052-.21v-.262l.052-.052c.07-.21.105-.384.105-.524v-.105h.052l-.052.052.21.157v-.052.052l.105.052h-.052c0 .035.008.052.026.052.017 0 .026.018.026.052a.99.99 0 0 0-.052.315h-.052c.035.035.052.061.052.079 0 .018.017.044.052.079.139-.279.21-.506.21-.681v-.157c.07 0 .139.079.21.236.07.157.122.428.157.813.034.419-.018 1.005-.157 1.756-.136.75-.415 1.72-.835 2.908zm-8.806 4.508c0-.034.008-.061.026-.079.017-.017.026-.061.026-.131v-.105l-.052.157v.158zm.524 3.565c0 .315.052.506.157.577.034-.035.07-.052.105-.052.034 0 .07-.018.105-.052.07 0 .105.017.105.052 0 .035.017.052.052.052l.052-.052h-.052.052v-.052h.105l.105-.052h-.052.105c.978-.315 1.695-.76 2.149-1.337.454-.577.856-1.302 1.206-2.175v.052l.105-.157v-.104l.105-.105v.052-.212l.052-.21v-.105l.157-.419.052-.052v-.052h-.052l.052-.21v.052c0 .035.017.071.052.105l.21.21c0 .035.008.052.026.052.017 0 .026.018.026.052.07 0 .113-.043.131-.131.017-.087.043-.148.079-.183h-.052l.052-.052v-.315l-.105-.052h-.052l-.052.105c0 .035.017.071.052.105h.052v.21h-.104l-.052.157v-.262l-.105-.21-.053.052-.052-.21.157-.577-.052-.21.052.052v-.052c0-.034-.009-.052-.026-.052-.018 0-.026-.017-.026-.052l.105-.367.052-.052.052-.262-.105-.052.052-.105a.59.59 0 0 0-.026-.183.561.561 0 0 1-.026-.183v-.21c0-.105-.018-.21-.052-.315a2.182 2.182 0 0 0-.105-.262 1.723 1.723 0 0 0-.183.105 1.588 1.588 0 0 1-.183.105c-.105.105-.376.332-.813.681-.437.35-.909.839-1.415 1.468-.507.629-.97 1.398-1.389 2.307-.42.907-.682 1.956-.787 3.144zm1.834-6.92l.052.052c0-.035.008-.052.026-.052.017 0 .026-.017.026-.052v-.052l-.052.052-.052.052zm.682 6.5a.594.594 0 0 0 .131-.079.654.654 0 0 1 .131-.079l-.157-.052.052.105-.105.052-.052.053zm.524-.367h-.104l-.052.052v.105l.156-.157zm.157-.157l.105-.105-.052-.105-.053.21zm.315-.367c.034 0 .07-.017.105-.052-.035 0-.052.018-.052.052h-.053zm.577-.681c.034-.035.052-.07.052-.105l-.157.052.105.053zm.052 1.992l.052-.052c-.035 0-.071-.017-.105-.052.034.035.034.052 0 .052l.053.052zm0 .419v.052l.052-.052h-.052zm.157-2.726l.052-.105-.105.105h.053zm.42-1.311l.052.052.052-.105-.157-.105.053.158zm.733-3.354a.24.24 0 0 0-.026-.105.353.353 0 0 1-.026-.157v.21c0 .071-.018.105-.052.105l-.21.052.157.21.052.052.052.052a.751.751 0 0 1 .052.315l-.052-.052v-.105l-.052-.105-.262-.157.105.315.052.21.052.052c0 .105.035.157.105.157v.21l-.105-.052-.052-.052h-.105v.105l.052.105-.21.157.315.052.052-.052h.052l-.052.105-.052-.052v.052c.035 0 .052.035.052.105 0-.07.026-.27.079-.603.054-.334.062-.71.027-1.129zm2.726-5.138v.105-.105zm.42-.786c.035 0 .052-.017.052-.052l-.052.052zm4.508 4.036c.454.175.803.524 1.048 1.048.244.524.279 1.136.105 1.835-.245 1.224-.857 2.333-1.835 3.329-.979.996-1.975 1.809-2.988 2.438l-.367.262.996.472.157.052.052-.105-.157.105-.052.052a.48.48 0 0 0 .131.052c.017 0 .06.017.131.052h.052l-.052-.052.157-.052.524.315.157.052h-.052l.052.052c0-.035.034-.052.105-.052l.315.21.157.105.052.052v-.052l.419.157c.105.105.227.236.367.393.139.157.244.27.315.341h-.052c.384.315.577.524.577.629l-.105.052c-.071 0-.629-.149-1.677-.446-1.048-.297-2.237-.743-3.565-1.337-.035-.035-.14-.097-.315-.183-.175-.088-.245-.219-.21-.393-.315.629-.585.97-.813 1.022-.227.052-.341.131-.341.236v.052c-.07 0-.139-.035-.21-.105a.567.567 0 0 1-.157-.419l-.052.052h-.052l-.052-.052.052.052h.052c0-.035-.008-.044-.026-.026-.017.017-.043-.009-.079-.079v.052l-.052-.052h.052l-.052-.052.105.052.105.052c0-.071.018-.123.052-.157h-.105l-.052-.052h.052c0-.035-.017-.052-.052-.052h.052l.052-.157h-.052l.052-.105v-.052c0-.035.018-.071.052-.105.071-.071.105-.123.105-.157h.052c-.035.035-.035.035 0 0s.018-.052-.052-.052c.035 0 .052-.018.052-.052l-.052-.052h.052v-.053c.035 0 .052-.017.052-.052 0-.035.018-.07.052-.105h-.049l.052-.052c.035-.21.097-.384.183-.524.088-.139.166-.349.236-.629.21-.454.393-.839.55-1.153.157-.315.315-.62.472-.917.157-.296.27-.515.341-.655l.052-.052v-.052.052l.052-.052c-.035 0-.044-.008-.026-.026.017-.017.008-.026-.026-.026v-.052l.052-.157.052-.105.105.052c.035 0 .052-.017.052-.052l-.105-.105.052-.157.052-.105v.052l.052-.052h-.052l.157-.105.052-.105h-.052v-.157l.21-.21c.07-.07.122-.105.157-.105l.052.105.052.157-.105-.052a.395.395 0 0 1 .236.236c.052.123.026.428-.079.917a18.037 18.037 0 0 1-.734 2.726c.035-.105.105-.157.21-.157l-.048-.056a.35.35 0 0 1 .157-.079.23.23 0 0 0 .157-.131c.034 0 .034.018 0 .052a.586.586 0 0 1 .21-.21c.07-.034.175-.105.315-.21l.681-.629c0-.07.026-.105.079-.105a.178.178 0 0 0 .131-.052v-.052c0-.034.017-.052.052-.052.07-.07.166-.148.288-.236.122-.087.218-.148.288-.183v.052c.07-.07.087-.105.052-.105h.052c0-.034-.018-.052-.052-.052.139-.139.262-.315.367-.524l.105.157c.035-.034.052-.06.052-.079 0-.017.017-.043.052-.079h-.21l.052-.105.052-.052c.035 0 .052.018.052.052v-.052l.105-.052h-.052l.052-.052.052-.052h.052c.21-.21.315-.367.315-.472.244-.489.428-.891.55-1.206.122-.315.218-.716.288-1.206a1.425 1.425 0 0 0-.419-.76 2.09 2.09 0 0 0-.655-.419 2.454 2.454 0 0 0-.577-.157c-.157-.017-.219-.026-.183-.026-.175 0-.306.052-.393.157-.088.105-.166.157-.236.157v-.052l.105-.105c-.035 0-.052.018-.052.052-.035 0-.052-.017-.052-.052l.052-.052-.052.052v-.052h-.052l-.052.052v-.157c.034 0 .043.009.026.026-.018.018-.009.026.026.026.035.035.052.035.052 0v-.052.052c-.035-.035-.044-.052-.026-.052.017 0 .008-.035-.026-.105v.052l.052-.052v.052l.052-.052h-.052c0-.034.017-.07.052-.105v.157l.105.052c0-.035.052-.105.157-.21l-.052-.105v-.157.052c.139-.139.296-.244.472-.315v.052c.034-.105.113-.157.236-.157h.393a.596.596 0 0 1 .262-.052c.07.035.122.071.157.105.034.035.087.052.157.052l-.052.052c.035 0 .052.018.052.052 0-.035.052-.052.157-.052.07.071.139.105.21.105v.052c.142.002.282.072.423.211zm-4.876 7.759c0 .105-.018.175-.052.21h.105v-.21h-.053zm.263-3.355c0-.034-.018-.052-.052-.052l.052.052zm.157 3.355l.105-.105-.105-.052-.052.052c0 .035-.035.071-.105.105h.157zm.104-3.775v.105l.105-.052-.105-.053zm.263 3.46a.837.837 0 0 0 .21-.157v-.052l-.105.052v.052h-.052l-.105-.157-.052.105-.052.052-.052.105.052.052c-.035 0-.052.018-.052.052l-.052.052h.105c0-.034.034-.087.105-.157h-.052l.105-.052v.053zm-.21-3.512l.105.052v-.052h-.105zm.314 3.145v.052l.052-.052h-.052zm.053.053v.052c0-.035-.018-.052-.052-.052l.052.052v-.052zm.576-.315c0-.035.008-.052.026-.052.017 0 .026-.017.026-.052v-.105l-.105.052v.052-.052.052l-.052.157.105-.052zm.367-.472l-.052.105h.052v-.105zm.158-.157l.052.052v-.052h-.052zm.157-.21c.035.035.07.052.105.052l-.105-.052zm.314 3.879h.052l-.052-.052v.052zm.106-.052c-.035 0-.052-.018-.052-.052l.052.052zm.104.157v.052c0-.035-.018-.052-.052-.052h.052zm.21-4.665l.052.052-.052-.105v.053zm.157-5.767c0-.034-.018-.034-.052 0l.052.052-.052-.052c.034-.034.052-.034.052 0zm.105 0h-.052l.052.052v-.052zm0 10.537l.105.052c-.035-.035-.071-.052-.105-.052zm.157.262c.034.035.087.052.157.052l.105-.052h-.262zm.105-10.851h.052l-.105.052.053-.052zm.315.052h-.105.105zm-.105 10.957l.052.052v-.052h-.052z" fill="#f2f2f2"/><path d="M55.026 32.331a107.31 107.31 0 0 1-1.232 3.434c-.367.962-.655 1.651-.865 2.071-.28.699-.481.935-.603.708-.123-.228-.202-.569-.236-1.022.034-.105.105-.254.21-.446s.175-.307.21-.341c0-.034-.018-.052-.052-.052h.052l-.052-.052c0-.035.017-.061.052-.079.035-.017.052-.06.052-.131v-.052c-.49.419-1.005.813-1.546 1.179-.542.367-1.11.55-1.704.55-.664.035-1.127-.166-1.389-.603-.262-.437-.393-.865-.393-1.284a1.595 1.595 0 0 1 0-.577c0-.139-.017-.227-.052-.262.071-.804.201-1.511.393-2.123.192-.611.533-1.249 1.022-1.913 0-.07.008-.105.026-.105.017 0 .026-.017.026-.052v-.052l.105-.157.052.052v-.052c0-.034.008-.06.026-.079.017-.017.026-.043.026-.079l.105-.157.105-.105.419-.367a.846.846 0 0 1 .367-.419 1.77 1.77 0 0 0 .472-.419l.052-.052.157-.105v.052l.052-.052v-.052l.052-.052.052.052.262-.21.262-.21c.035 0 .061-.008.079-.026.017-.017.043-.026.079-.026v-.052h.262l.105-.105c.174-.07.341-.139.498-.21.157-.07.306-.105.446-.105l-.105.052h-.105l-.052.105c.07 0 .131-.008.183-.026a.59.59 0 0 1 .183-.026v-.107h.105c.035-.035.07-.052.105-.052v.052l-.052.052h.105c-.105 0-.157.018-.157.052h.105-.052a.59.59 0 0 0 .183-.052.62.62 0 0 1 .183-.052h.052c0 .071-.052.123-.157.157l.105-.157.262.052c.139 0 .384.333.734.996l.315.052.052-.105.052-.052a.925.925 0 0 0 .105-.419h.052l-.052.052.157.052v-.157l-.157-.052c0-.034.017-.07.052-.105l.052.052h.052l-.052-.052c.035 0 .052-.017.052-.052l.105.105h-.157c0 .035.017.052.052.052v-.052c.07 0 .139.052.21.157.139.21.227.559.262 1.048 0 .28-.079.621-.236 1.022-.154.403-.32.918-.495 1.547zm-6.762.734l.105-.21v-.105l-.105.157v.158zm.786 3.407c0 .105.034.183.105.236.07.052.122.096.157.131a.59.59 0 0 0 .183-.026.561.561 0 0 1 .183-.026c.035 0 .052.017.052.052l.052-.052h.052l.157-.052.052-.052a.66.66 0 0 1 .315-.157c.139-.034.21-.122.21-.262.594-.384 1.048-.795 1.363-1.232.315-.437.611-.987.891-1.651l.157-.157v-.105l.052-.105v-.158l.052-.157.052-.105v-.105l.157-.419v-.104l.052-.157v.157l.21.21c0-.105.017-.157.052-.157l-.052-.157.052-.052-.105-.21v.052l-.052-.157.052-.577.052-.21.052-.105c-.035 0-.052-.017-.052-.052l.052-.052.052-.367.052-.315v-.157c0-.105-.052-.279-.157-.524-.105-.244-.228-.367-.367-.367-.071 0-.219.044-.446.131-.228.088-.507.297-.839.629-.332.333-.708.839-1.127 1.52-.419.681-.874 1.634-1.363 2.857-.105.385-.193.813-.262 1.284-.063.47-.098.898-.098 1.282zm1.573-6.919v.052l.105-.105v-.052l-.052.105h-.053zm.996 5.871l-.105-.052.052.157h-.105v.052l.158-.157zm.262-.21l-.105.052-.052.105.157-.157zm.21-.209l.105-.105-.052-.052-.053.157zm.314-.263h.052v-.105h.052l-.104.105zm.525-.786a.398.398 0 0 0 .052-.157l-.052.052v.105zm.262-.472l-.105.157h.052c0-.035.017-.07.052-.105v-.052zm.157-.838l-.052.105h.052v-.105zm.21-1.521c-.035 0-.052.018-.052.052h.052v-.052zm.157-.943h-.052c0 .035.017.052.052.052v-.052zm.157.734c0-.07.035-.174.105-.315l-.052-.052h-.052v.105l-.052.105-.157.105.208.052zm-.157.786v-.052l.052-.105c-.035.035-.052.087-.052.157zm.419-2.306l-.105-.21c.034.035.052.105.052.21-.035.035-.052.07-.052.105l-.157.052.157.105c0 .035.017.052.052.052h.052c-.035.105-.044.183-.026.236.017.052.008.114-.026.183h-.052l.052-.052c0-.035-.018-.052-.052-.052v-.105l-.157-.21v.525l.105-.052v.105c0 .071.017.123.052.157.14-.316.175-.665.105-1.049zm10.536-1.101a351.305 351.305 0 0 1-2.49 6.369c-.402.996-.726 1.87-.97 2.621-.245.751-.367 1.249-.367 1.494 0 .105.034.157.105.157-.245 0-.402-.28-.472-.839v.21l-.105-.157-.157-.21.052.052v-.105l-.105-.105h.052c0-.035-.009-.052-.026-.052-.018 0-.026-.018-.026-.052l.105-.262c.035 0 .052-.018.052-.052l.21.052-.105-.157-.21-.105a.427.427 0 0 0 .052-.157c0-.035.017-.071.052-.105v.157l.262.157c-.035-.035-.052-.088-.052-.157v-.105l-.105-.052.052-.105c-.035 0-.044-.009-.026-.026.017-.018-.009-.043-.079-.079l.105-.105c0 .035.017.052.052.052l.105.052c0-.139.017-.227.052-.262l-.105-.052h-.157.052c-.419.454-.97.908-1.651 1.363-.681.454-1.355.681-2.018.681-.385 0-.699-.079-.944-.236a1.64 1.64 0 0 1-.55-.55c-.122-.21-.21-.437-.262-.681s-.079-.454-.079-.629v-.472a.738.738 0 0 0-.052-.315 14.62 14.62 0 0 1 .498-2.333 6.951 6.951 0 0 1 1.022-2.071c.139 0 .21-.07.21-.21v.052l.105-.105v-.157l.157-.21.052-.052.367-.367.052-.052.052-.052h-.052c.105-.174.227-.315.367-.419.139-.105.297-.21.472-.315l.157-.105.105-.052c.034-.035.043-.052.026-.052-.018 0-.009-.017.026-.052h.105l.524-.315.052-.052c.034 0 .052-.008.052-.026 0-.017.034-.026.105-.026l.157-.052.157-.052c.175-.07.341-.131.498-.183.157-.052.306-.079.446-.079l-.052.052v-.053l-.105.052-.1.158a1.36 1.36 0 0 1 .419-.052v-.052l.052-.157h.052l.052.105c-.035 0-.052.018-.052.052.034 0 .052-.017.052-.052v.104H61v-.052l.052.052c.07-.07.21-.105.419-.105h.052c0 .071-.088.14-.262.21l.052.052c.175 0 .393.088.655.262.262.175.428.559.498 1.153.349-1.013.663-1.931.944-2.752a28.31 28.31 0 0 1 .734-1.966l.052-.157v-.105c.035-.139.07-.262.105-.367a1.16 1.16 0 0 0 .052-.367l.052-.105.052-.052c0-.034-.009-.052-.026-.052-.018 0-.026-.017-.026-.052l.157-.21.052-.21v-.262l.052-.052c.07-.21.105-.384.105-.524v-.105h.052l-.052.052.21.157v-.052.052l.105.052h-.052c0 .035.008.052.026.052.017 0 .026.018.026.052a.99.99 0 0 0-.052.315h-.052c.035.035.052.061.052.079 0 .018.017.044.052.079.139-.279.21-.506.21-.681v-.157c.07 0 .139.079.21.236.07.157.122.428.157.813.034.419-.018 1.005-.157 1.756-.136.75-.415 1.72-.835 2.908zm-8.806 4.508c0-.034.008-.061.026-.079.017-.017.026-.061.026-.131v-.105l-.052.157v.158zm.524 3.565c0 .315.052.506.157.577.034-.035.07-.052.105-.052.034 0 .07-.018.105-.052.07 0 .105.017.105.052 0 .035.017.052.052.052l.052-.052h-.052.052v-.052h.105l.105-.052h-.052.105c.978-.315 1.695-.76 2.149-1.337.454-.577.856-1.302 1.206-2.175v.052l.105-.157v-.104l.105-.105v.052-.212l.052-.21v-.105l.157-.419.052-.052v-.052h-.052l.052-.21v.052c0 .035.017.071.052.105l.21.21c0 .035.008.052.026.052.017 0 .026.018.026.052.07 0 .113-.043.131-.131.017-.087.043-.148.079-.183h-.052l.052-.052v-.315l-.105-.052h-.052l-.052.105c0 .035.017.071.052.105h.052v.21h-.105l-.052.157v-.262l-.105-.21-.052.052-.052-.21.157-.577-.052-.21.052.052v-.052c0-.034-.009-.052-.026-.052-.018 0-.026-.017-.026-.052l.105-.367.052-.052.052-.262-.105-.052.052-.105a.59.59 0 0 0-.026-.183.561.561 0 0 1-.026-.183v-.21c0-.105-.018-.21-.052-.315a2.182 2.182 0 0 0-.105-.262 1.723 1.723 0 0 0-.183.105 1.588 1.588 0 0 1-.183.105c-.105.105-.376.332-.813.681-.437.35-.909.839-1.415 1.468-.507.629-.97 1.398-1.389 2.307-.42.907-.682 1.956-.787 3.144zm1.835-6.92l.052.052c0-.035.008-.052.026-.052.017 0 .026-.017.026-.052v-.052l-.052.052-.052.052zm.682 6.5a.594.594 0 0 0 .131-.079.654.654 0 0 1 .131-.079l-.157-.052.052.105-.105.052-.052.053zm.523-.367h-.104l-.052.052v.105l.156-.157zm.158-.157l.105-.105-.052-.105-.053.21zm.314-.367c.034 0 .07-.017.105-.052-.035 0-.052.018-.052.052h-.053zm.577-.681c.034-.035.052-.07.052-.105l-.157.052.105.053zm.053 1.992l.052-.052c-.035 0-.071-.017-.105-.052.034.035.034.052 0 .052l.053.052zm0 .419v.052l.052-.052h-.052zm.157-2.726l.052-.105-.105.105h.053zm.419-1.311l.052.052.052-.105-.157-.105.053.158zm.734-3.354a.24.24 0 0 0-.026-.105.353.353 0 0 1-.026-.157v.21c0 .071-.018.105-.052.105l-.21.052.157.21.052.052.052.052a.751.751 0 0 1 .052.315l-.052-.052v-.105l-.052-.105-.262-.157.105.315.052.21.052.052c0 .105.035.157.105.157v.21l-.105-.052-.052-.052h-.105v.105l.052.105-.21.157.315.052.052-.052h.052l-.052.105-.052-.052v.052c.035 0 .052.035.052.105 0-.07.026-.27.079-.603.053-.334.061-.71.027-1.129zm2.726-5.138v.105-.105zm.419-.786c.035 0 .052-.017.052-.052l-.052.052zm4.246 11.795c.035-.035.07-.052.105-.052.034 0 .052.018.052.052 0 .105-.157.297-.472.577-.21.105-.437.245-.681.419a11.11 11.11 0 0 1-.97.603c-.402.227-.9.48-1.494.76-.595.279-1.363.577-2.307.891h-.052c-.244 0-.454-.114-.629-.341-.175-.228-.262-.428-.262-.603v-.105l.052-.052a.853.853 0 0 0-.052-.262c-.035-.105-.035-.157 0-.157 0-.035.009-.044.026-.026.018.017.026.008.026-.026l-.052-.052c0-.174.026-.358.079-.55.052-.192.114-.375.183-.55l.157.052c0-.139.035-.244.105-.315h-.104l-.052.105-.052.105.105-.367v-.052c0-.035.009-.061.026-.079.018-.017.026-.06.026-.131v-.052c.035 0 .052-.008.052-.026 0-.017.018-.026.052-.026v-.052c0-.035.009-.061.026-.079.018-.017.026-.06.026-.131l.105.157.157-.315-.052.052-.052.052.052-.157.052-.052-.052-.262c.035-.034.061-.122.079-.262.018-.139.044-.279.079-.419.034-.139.07-.27.105-.393.035-.122.07-.183.105-.183h.052v-.052h-.052.052l-.052-.052h.052l.052-.052-.053-.057.052-.052h-.052l.052-.052c.034 0 .052-.035.052-.105h-.104v-.052.052l.052-.052-.052-.157v-.105.052c.034 0 .043-.008.026-.026-.018-.017-.009-.026.026-.026h.105-.052c0 .035.07-.105.21-.419a27.247 27.247 0 0 1 1.153-2.28c.21-.367.367-.603.472-.708l.21-.105v-.052l.105-.052c0-.034.017-.06.052-.079.034-.017.052-.043.052-.079l.157-.105.052-.052v.052l.105-.052h-.052l.315-.105.105-.105v.052l.21-.157v.052c-.035 0-.052.009-.052.026 0 .018-.018.026-.052.026v.419c0 .035.035.052.105.052l.052.052h-.054c.139 0 .21-.034.21-.105l-.052-.052h.052l.052.052c.034-.035.087-.052.157-.052l-.052-.051h.105l-.052-.105v-.052h-.157v.052l-.158.105-.052-.105-.105.052.105-.105.052-.052.105-.105.052-.157c.21-.07.367-.105.472-.105l.157-.052h.105l.052-.052.052.052.524-.105.052.052v-.052l.472-.052c.175.035.375.071.603.105.227.035.375.071.446.105h-.105l-.157.052c.174 0 .306.009.393.026.087.018.166.026.236.026l.052.052c0 .071-.131.149-.393.236-.262.088-.586.201-.97.341-.385.14-.796.315-1.232.524-.437.21-.848.49-1.232.839-.175.21-.323.455-.446.734-.123.28-.254.559-.393.839l.052-.052.052.052c.105-.105.262-.192.472-.262.21-.07.401-.105.577-.105l.052.052v-.052.052l.052-.052v.052h-.052l.052-.052.052-.052.105-.052.052.052v.21h.052v-.264l.21-.052v.052-.052.052h.157l.105-.052c.174.071.279.157.315.262h-.052l-.052.052c.07.071.122.105.157.105.034 0 .052.035.052.105 0 .245-.297.533-.891.865a8.653 8.653 0 0 1-1.782.76c-.21.071-.393.254-.55.55a6.554 6.554 0 0 0-.419.996c-.123.367-.228.734-.315 1.101-.088.367-.167.673-.236.917.105-.035.201-.07.288-.105.087-.035.166-.07.236-.105h.157l.052-.052h.105c0-.034.017-.052.052-.052.034 0 .052-.017.052-.052l.105-.052h.105l.052-.052.419-.21c.21-.139.489-.262.839-.367h.105l.105-.052.052-.052.315-.052.21-.105c.07 0 .122-.017.157-.052h.052l.157.052.105-.105c.244 0 .506-.035.786-.105h-.105l-.052.052-.105.157h.052l-.052.052c.21 0 .332-.034.367-.105l-.052-.157.105-.052c.07 0 .105.018.105.052h-.052l.052.052.052-.052v.052c.034 0 .07-.017.105-.052l-.105.157c.034 0 .017-.035-.052-.105h-.052c-.035 0-.052.018-.052.052.035 0 .052-.017.052-.052v.104l-.052.052c.07-.035.131-.052.183-.052s.116-.016.187-.051zm-6.553 1.52c0-.07.018-.122.052-.157h-.105v.21c.001-.036.019-.053.053-.053zm.053-.263c0-.034.009-.07.026-.105a.353.353 0 0 0 .026-.157c-.07 0-.105.052-.105.157h.052l.001.105zm.367-1.152c0-.035.009-.061.026-.079.018-.017.026-.043.026-.079l-.052.105v.053zm.104-.315c0-.035.009-.052.026-.052.018 0 .026-.017.026-.052l-.052.052v.052zm.525-1.258l-.157-.577v.891l.157-.314zm.209-1.573v.052l.052-.052h-.052zm.105.367l-.052-.053v.052l.052.052v-.051zm0 4.875c0 .035.017.052.052.052l-.052-.052zm.577-6.343l.105.105h-.052v.052c.034-.034.052-.06.052-.079 0-.017.017-.043.052-.079h-.157zm.209-.157v.052c0-.035.008-.061.026-.079.017-.017.026-.043.026-.079 0 .035-.018.052-.052.052v.054zm.263-.367l-.105-.052v.157l.105-.105zm.104-.209c0-.035.008-.052.026-.052.017 0 .026-.017.026-.052l-.052.052v.052zm.367-.682l.052.052c0-.035.008-.052.026-.052.017 0 .026-.017.026-.052l-.052.052h-.052zm.158-.21l.052.052.105-.105h-.105l-.052.053zm.681-.943l.052.052.052.052v-.157l-.104.053zm.367.157a1.126 1.126 0 0 1-.262.21 1.17 1.17 0 0 1 .419-.21h-.157zm-.157 7.181v.052l.105-.052v-.105l-.105.052v.053zm.629-.104v-.052l-.052.052h.052zm.576-7.863l.105.315c.175-.07.262-.122.262-.157l-.105-.052-.105.052-.157-.158zm.105 3.302v-.105l-.052.105h.052zm.472-3.459h-.052v.052l.105-.052h-.053zm.052.209l.052.105h-.105c.07 0 .131-.008.183-.026a.59.59 0 0 1 .183-.026l.052-.21-.315.157h-.05zm.472 0c.07 0 .122-.017.157-.052l-.052-.105-.105.157z" fill="#f2f2f2"/></svg>